# xmcd
#
# Track frame offsets:
# 150
# 15351
# 33124
# 48653
# 65601
# 86976
# 102112
# 122932
# 140841
# 156670
#
# Disc length: 2401 seconds
#
# Revision: 0
# Processed by: cddbd v1.5.1PL0 Copyright (c) Steve Scherf et al.
# Submitted via: Audion 3.0.2 (http://www.panic.com/audion/)
#
DISCID=8d095f0a
DTITLE=Alejandro Filio - ...a quien?
DYEAR=1900
DGENRE=
TTITLE0=a quien?
TTITLE1=y tanto
TTITLE2=por algo estamos
TTITLE3=colibri
TTITLE4=me doy
TTITLE5=pregunto
TTITLE6=para la buena voluntad
TTITLE7=no me ves
TTITLE8=una cancion
TTITLE9=angel de la noche
EXTD=
EXTT0=
EXTT1=
EXTT2=
EXTT3=
EXTT4=
EXTT5=
EXTT6=
EXTT7=
EXTT8=
EXTT9=
PLAYORDER=
